<?xml version="1.0" standalone="no"?><!DOCTYPE svg PUBLIC "-//W3C//DTD SVG 1.1//EN" "http://www.w3.org/Graphics/SVG/1.1/DTD/svg11.dtd"><svg t="1761486844196" class="icon" viewBox="0 0 1024 1024" version="1.1" xmlns="http://www.w3.org/2000/svg" p-id="4617" xmlns:xlink="http://www.w3.org/1999/xlink" width="200" height="200"><path d="M914.285714 548.571429q0 30.857143-21.142857 52l-372 372q-22.285714 21.142857-52 21.142857-29.142857 0-51.428571-21.142857l-42.857143-42.857143q-21.714286-21.714286-21.714286-52t21.714286-52l167.428571-167.428571-402.285714 0q-29.714286 0-48.285714-21.428571t-18.571429-51.714286l0-73.142857q0-30.285714 18.571429-51.714286t48.285714-21.428571l402.285714 0-167.428571-168q-21.714286-20.571429-21.714286-51.428571t21.714286-51.428571l42.857143-42.857143q21.714286-21.714286 51.428571-21.714286 30.285714 0 52 21.714286l372 372q21.142857 20 21.142857 51.428571z" p-id="4618"></path></svg>