<?xml version="1.0" standalone="no"?><!DOCTYPE svg PUBLIC "-//W3C//DTD SVG 1.1//EN" "http://www.w3.org/Graphics/SVG/1.1/DTD/svg11.dtd"><svg t="1761567557794" class="icon" viewBox="0 0 1024 1024" version="1.1" xmlns="http://www.w3.org/2000/svg" p-id="6340" xmlns:xlink="http://www.w3.org/1999/xlink" width="200" height="200"><path d="M0 0h1024v1024H0z" fill="#FFFFFF" opacity=".01" p-id="6341"></path><path d="M128 513.493333a87.04 87.04 0 0 1 0.298667-8.832 85.162667 85.162667 0 0 1 24.704-67.626666l214.442666-198.698667a85.333333 85.333333 0 1 1 120.661334 120.661333L415.104 426.666667H597.333333a85.333333 85.333333 0 1 1 0 170.666666H423.637333l62.464 62.464a88.362667 88.362667 0 1 1-124.970666 125.013334l-207.232-207.274667a88.106667 88.106667 0 0 1-25.898667-64zM810.666667 384a85.333333 85.333333 0 0 1 85.333333 85.333333v85.333334a85.333333 85.333333 0 1 1-170.666667 0v-85.333334a85.333333 85.333333 0 0 1 85.333334-85.333333z" fill="#000000" p-id="6342"></path></svg>